<?xml version="1.0" standalone="no"?>
<!DOCTYPE svg PUBLIC "-//W3C//DTD SVG 20010904//EN"
 "http://www.w3.org/TR/2001/REC-SVG-20010904/DTD/svg10.dtd">
<svg version="1.0" xmlns="http://www.w3.org/2000/svg"
 width="848.000000pt" height="848.000000pt" viewBox="0 0 848.000000 848.000000"
 preserveAspectRatio="xMidYMid meet">
<metadata>
Created by potrace 1.11, written by Peter Selinger 2001-2013
</metadata>
<g transform="translate(0.000000,848.000000) scale(0.100000,-0.100000)"
fill="#000000" stroke="none">
<path d="M4049 8233 c-1739 -1485 -2684 -2784 -2933 -4033 -53 -266 -60 -351
-61 -715 0 -395 15 -558 81 -865 139 -650 479 -1266 923 -1668 524 -477 1166
-762 1870 -832 148 -14 515 -12 661 4 715 81 1373 382 1873 856 242 230 437
492 601 810 228 443 342 889 377 1470 27 452 -32 914 -172 1347 -180 559 -516
1165 -963 1738 -472 604 -1130 1269 -1918 1938 -70 59 -133 107 -141 107 -8 0
-97 -71 -198 -157z m231 -808 c7 -8 19 -15 26 -15 7 0 20 -13 29 -30 9 -16 21
-30 28 -30 11 0 74 -55 306 -268 136 -124 263 -247 422 -407 82 -82 185 -186
229 -230 44 -44 80 -84 80 -90 1 -11 46 -65 54 -65 8 0 86 -87 121 -133 16
-23 37 -49 46 -57 26 -23 139 -158 139 -166 0 -8 71 -94 125 -152 22 -24 45
-55 50 -71 8 -22 72 -111 96 -131 13 -12 70 -101 79 -125 9 -23 64 -102 81
-115 4 -3 21 -32 40 -65 18 -33 51 -94 74 -135 22 -41 53 -93 68 -115 15 -22
27 -47 27 -55 0 -9 16 -42 35 -74 19 -32 35 -64 35 -71 0 -6 20 -53 45 -103
25 -50 45 -98 45 -107 0 -9 13 -47 30 -85 16 -37 36 -92 44 -121 21 -80 46
-168 63 -219 8 -24 18 -72 23 -105 4 -33 18 -123 31 -200 32 -197 32 -584 -1
-815 -12 -85 -26 -184 -30 -220 -4 -36 -22 -114 -40 -175 -17 -60 -35 -126
-39 -145 -12 -56 -78 -226 -127 -325 -24 -49 -44 -95 -44 -101 0 -6 -9 -23
-20 -37 -11 -13 -31 -48 -45 -76 -26 -52 -92 -143 -107 -149 -4 -2 -8 -8 -8
-14 0 -6 -10 -25 -23 -42 -12 -17 -29 -44 -37 -59 -8 -16 -23 -33 -35 -39 -25
-13 -53 -45 -105 -119 -23 -34 -49 -59 -64 -63 -13 -3 -50 -35 -81 -70 -34
-40 -75 -74 -103 -87 -26 -13 -58 -35 -72 -49 -21 -22 -81 -65 -165 -117 -11
-7 -36 -20 -55 -28 -19 -9 -78 -40 -131 -70 -52 -30 -103 -55 -113 -55 -9 0
-38 -11 -64 -25 -26 -14 -58 -25 -72 -25 -14 0 -30 -4 -36 -9 -11 -11 -172
-64 -239 -79 -270 -60 -422 -75 -708 -69 -189 4 -266 10 -352 27 -60 11 -137
25 -171 30 -33 5 -114 28 -180 50 -65 23 -135 45 -154 50 -19 4 -54 17 -77 29
-23 11 -48 21 -54 21 -7 0 -56 25 -108 55 -53 30 -112 61 -131 70 -39 17 -45
21 -146 87 -39 26 -74 53 -77 61 -3 7 -30 26 -61 42 -37 19 -76 51 -112 92
-30 34 -67 68 -82 75 -15 7 -43 35 -62 63 -19 27 -63 77 -97 111 -35 35 -63
69 -64 76 0 7 -16 33 -35 58 -45 60 -102 146 -129 195 -72 132 -155 305 -155
324 0 9 -6 27 -13 41 -21 41 -46 112 -56 160 -6 25 -26 101 -45 170 -19 68
-38 149 -41 180 -4 30 -13 105 -21 165 -55 408 -28 867 68 1190 16 55 34 119
39 143 5 24 20 71 35 105 14 34 29 78 34 97 10 37 26 76 65 150 13 25 27 58
30 74 4 16 20 49 36 74 16 25 29 54 29 63 0 9 16 40 35 69 19 29 60 100 92
159 31 58 77 134 102 169 25 35 53 75 61 90 34 60 78 129 101 155 13 16 36 43
52 60 15 17 27 39 27 49 0 10 30 51 67 90 36 40 78 91 92 113 29 45 209 259
319 380 198 216 507 535 519 535 5 0 47 41 92 90 46 50 88 90 93 90 5 0 44 34
86 76 42 42 92 87 112 100 21 14 43 36 50 49 7 14 17 25 21 25 5 0 31 20 59
45 27 24 59 49 70 55 11 6 20 16 20 23 1 13 68 65 86 66 6 1 17 -6 24 -14z"/>
</g>
</svg>
