<?xml version="1.0" standalone="no"?>
<!DOCTYPE svg PUBLIC "-//W3C//DTD SVG 20010904//EN"
 "http://www.w3.org/TR/2001/REC-SVG-20010904/DTD/svg10.dtd">
<svg version="1.0" xmlns="http://www.w3.org/2000/svg"
 width="848.000000pt" height="848.000000pt" viewBox="0 0 848.000000 848.000000"
 preserveAspectRatio="xMidYMid meet">
<metadata>
Created by potrace 1.14, written by Peter Selinger 2001-2017
</metadata>
<g transform="translate(0.000000,848.000000) scale(0.100000,-0.100000)"
fill="#000000" stroke="none">
<path d="M4049 8233 c-1739 -1485 -2684 -2784 -2933 -4033 -53 -266 -60 -351
-61 -715 0 -395 15 -558 81 -865 139 -650 479 -1266 923 -1668 524 -477 1166
-762 1870 -832 148 -14 515 -12 661 4 715 81 1373 382 1873 856 242 230 437
492 601 810 228 443 342 889 377 1470 27 452 -32 914 -172 1347 -180 559 -516
1165 -963 1738 -472 604 -1130 1269 -1918 1938 -70 59 -133 107 -141 107 -8 0
-97 -71 -198 -157z"/>
</g>
</svg>
